<?xml version="1.0" standalone="no"?><!DOCTYPE svg PUBLIC "-//W3C//DTD SVG 1.1//EN" "http://www.w3.org/Graphics/SVG/1.1/DTD/svg11.dtd"><svg t="1744784604630" class="icon" viewBox="0 0 1024 1024" version="1.1" xmlns="http://www.w3.org/2000/svg" p-id="7227" xmlns:xlink="http://www.w3.org/1999/xlink" width="200" height="200"><path d="M611.413333 96a32 32 0 0 1-9.109333 42.026667l-2.602667 1.685333-219.904 126.933333L864 266.666667a64 64 0 0 1 64 64v490.666666a64 64 0 0 1-64 64h-704a64 64 0 0 1-64-64v-490.666666a64 64 0 0 1 64-64h91.989333l1.642667-1.045334 314.069333-181.333333a32 32 0 0 1 43.733334 11.712z m252.586667 234.666667h-704v490.666666h704v-490.666666z m-224 64a181.333333 181.333333 0 1 1 0 362.666666 181.333333 181.333333 0 0 1 0-362.666666zM373.333333 682.666667a32 32 0 0 1 0 64h-149.333333a32 32 0 0 1 0-64h149.333333zM640 458.666667a117.333333 117.333333 0 1 0 0 234.666666 117.333333 117.333333 0 0 0 0-234.666666zM309.333333 576a32 32 0 0 1 0 64h-85.333333a32 32 0 0 1 0-64h85.333333z" fill="#4E4E4E" p-id="7228"></path></svg>