<?xml version="1.0" standalone="no"?><!DOCTYPE svg PUBLIC "-//W3C//DTD SVG 1.1//EN" "http://www.w3.org/Graphics/SVG/1.1/DTD/svg11.dtd"><svg t="1744785106146" class="icon" viewBox="0 0 1024 1024" version="1.1" xmlns="http://www.w3.org/2000/svg" p-id="12306" xmlns:xlink="http://www.w3.org/1999/xlink" width="200" height="200"><path d="M512 160c194.4 0 352 157.6 352 352s-157.6 352-352 352c-43.392 0-85.696-7.872-125.344-22.976l-12.288-4.992-83.488 23.84a96 96 0 0 1-116.96-60.544l-1.728-5.376a96 96 0 0 1 2.432-60.096l23.456-62.56-3.904-7.808a350.368 350.368 0 0 1-33.952-139.264L160 512C160 317.6 317.6 160 512 160z m0 64a288 288 0 0 0-288 288c0 50.24 12.864 98.56 36.992 141.312l7.36 12.992-33.792 90.048a32 32 0 0 0 38.752 41.984l106.176-30.272 10.816 5.056c37.76 17.6 79.04 26.88 121.696 26.88a288 288 0 0 0 0-576z m-52.384 356.8c11.936 16.96 31.264 27.2 52.384 27.2a63.68 63.68 0 0 0 51.68-26.24 32 32 0 1 1 51.616 37.824A127.68 127.68 0 0 1 512 672a127.872 127.872 0 0 1-104.704-54.336 32 32 0 1 1 52.32-36.864z" fill="#fa3148" p-id="12307"></path></svg>